# Blender v2.72 (sub 0) OBJ File: ''
# www.blender.org
mtllib sky_cube.mtl
o Cube.001
v 1.000000 -1.000000 1.000000
v -1.000000 -1.000000 1.000000
v -1.000000 -1.000000 -1.000000
v -1.000000 1.000000 -1.000000
v -1.000000 1.000000 1.000000
v 0.999999 1.000000 1.000001
v 1.000000 -1.000000 -1.000000
v 1.000000 1.000000 -0.999999
vt 1.000000 0.000000
vt 1.000000 1.000000
vt 0.000000 1.000000
vt 0.000000 0.000000
vn 0.577300 -0.577300 0.577300
vn -0.577300 -0.577300 0.577300
vn -0.577300 -0.577300 -0.577300
vn -0.577300 0.577300 -0.577300
vn -0.577300 0.577300 0.577300
vn 0.577300 0.577300 0.577300
vn 0.577300 -0.577300 -0.577300
vn 0.577300 0.577300 -0.577300
usemtl Material.001
s 1
f 1/1/1 2/2/2 3/3/3
f 4/1/4 5/2/5 6/3/6
f 7/4/7 8/1/8 6/2/6
f 1/4/1 6/1/6 5/2/5
f 5/1/5 4/2/4 3/3/3
f 7/1/7 3/2/3 4/3/4
f 7/4/7 1/1/1 3/3/3
f 8/4/8 4/1/4 6/3/6
f 1/3/1 7/4/7 6/2/6
f 2/3/2 1/4/1 5/2/5
f 2/4/2 5/1/5 3/3/3
f 8/4/8 7/1/7 4/3/4
