# Blender v2.69 (sub 0) OBJ File: 'ab_material_test.blend'
# www.blender.org
mtllib ab_material_test.mtl
o Cube_Cube.002
v -1.292740 1.678939 -0.632419
v -1.292740 1.678939 1.367581
v 0.707260 1.678939 1.367581
v 0.707260 1.678939 -0.632419
v -1.292740 -0.321061 -0.632419
v -1.292740 -0.321061 1.367581
v 0.707260 -0.321061 1.367581
v 0.707260 -0.321061 -0.632419
v -0.792740 1.178939 -2.017790
v -0.792740 1.178939 -1.017791
v 0.207260 1.178939 -1.017791
v 0.207260 1.178939 -2.017790
v -0.792740 0.178939 -2.017790
v -0.792740 0.178939 -1.017790
v 0.207260 0.178939 -1.017790
v 0.207260 0.178939 -2.017790
v -0.792740 1.178939 1.757211
v -0.792740 1.178939 2.757212
v 0.207260 1.178939 2.757212
v 0.207260 1.178939 1.757211
v -0.792740 0.178939 1.757212
v -0.792740 0.178939 2.757212
v 0.207260 0.178939 2.757212
v 0.207260 0.178939 1.757212
v 1.207260 1.178939 -0.103107
v 1.207260 1.178939 0.896893
v 2.207260 1.178939 0.896893
v 2.207260 1.178939 -0.103107
v 1.207260 0.178939 -0.103106
v 1.207260 0.178939 0.896894
v 2.207260 0.178939 0.896894
v 2.207260 0.178939 -0.103106
v -2.753712 1.178939 -0.103107
v -2.753712 1.178939 0.896893
v -1.753712 1.178939 0.896893
v -1.753712 1.178939 -0.103107
v -2.753712 0.178939 -0.103106
v -2.753712 0.178939 0.896894
v -1.753712 0.178939 0.896894
v -1.753712 0.178939 -0.103106
v -0.753712 -0.776292 -0.103106
v -0.753712 -0.776292 0.896894
v 0.246288 -0.776292 0.896894
v 0.246288 -0.776292 -0.103106
v -0.753712 -1.776292 -0.103106
v -0.753712 -1.776292 0.896894
v 0.246288 -1.776292 0.896894
v 0.246288 -1.776292 -0.103106
v -0.753712 3.118621 -0.103107
v -0.753712 3.118621 0.896893
v 0.246288 3.118621 0.896893
v 0.246288 3.118621 -0.103107
v -0.753712 2.118621 -0.103107
v -0.753712 2.118621 0.896893
v 0.246288 2.118621 0.896893
v 0.246288 2.118621 -0.103107
vt 0.000000 0.500000
vt 0.500000 0.500000
vt 0.000000 1.000000
vt 0.512500 0.512500
vt 0.987500 0.512500
vt 0.512500 0.987500
vt 0.012500 0.012500
vt 0.487500 0.012500
vt 0.012500 0.487500
vt 0.512500 0.012500
vt 0.987500 0.012500
vt 0.512500 0.487500
vt 0.500000 1.000000
vt 0.987500 0.987500
vt 0.487500 0.487500
vt 0.987500 0.487500
vn -1.000000 0.000000 0.000000
vn 0.000000 0.000000 1.000000
vn 1.000000 0.000000 0.000000
vn 0.000000 -0.000000 -1.000000
vn 0.000000 1.000000 -0.000000
vn 0.000000 -1.000000 0.000000
usemtl Material.001
s off
f 5/1/1 6/2/1 1/3/1
f 6/1/2 7/2/2 2/3/2
f 7/1/3 8/2/3 3/3/3
f 8/1/4 5/2/4 4/3/4
f 1/1/5 2/2/5 4/3/5
f 8/1/6 7/2/6 5/3/6
f 13/4/1 14/5/1 9/6/1
f 14/4/2 15/5/2 10/6/2
f 15/4/3 16/5/3 11/6/3
f 16/4/4 13/5/4 12/6/4
f 9/4/5 10/5/5 12/6/5
f 16/4/6 15/5/6 13/6/6
f 21/4/1 22/5/1 17/6/1
f 22/4/2 23/5/2 18/6/2
f 23/4/3 24/5/3 19/6/3
f 24/4/4 21/5/4 20/6/4
f 17/4/5 18/5/5 20/6/5
f 24/4/6 23/5/6 21/6/6
f 29/7/1 30/8/1 25/9/1
f 30/7/2 31/8/2 26/9/2
f 31/7/3 32/8/3 27/9/3
f 32/7/4 29/8/4 28/9/4
f 25/7/5 26/8/5 28/9/5
f 32/7/6 31/8/6 29/9/6
f 37/7/1 38/8/1 33/9/1
f 38/7/2 39/8/2 34/9/2
f 39/7/3 40/8/3 35/9/3
f 40/7/4 37/8/4 36/9/4
f 33/7/5 34/8/5 36/9/5
f 40/7/6 39/8/6 37/9/6
f 45/10/1 46/11/1 41/12/1
f 46/10/2 47/11/2 42/12/2
f 47/10/3 48/11/3 43/12/3
f 48/10/4 45/11/4 44/12/4
f 41/10/5 42/11/5 44/12/5
f 48/10/6 47/11/6 45/12/6
f 53/10/1 54/11/1 49/12/1
f 54/10/2 55/11/2 50/12/2
f 55/10/3 56/11/3 51/12/3
f 56/10/4 53/11/4 52/12/4
f 49/10/5 50/11/5 52/12/5
f 56/10/6 55/11/6 53/12/6
f 6/2/1 2/13/1 1/3/1
f 7/2/2 3/13/2 2/3/2
f 8/2/3 4/13/3 3/3/3
f 5/2/4 1/13/4 4/3/4
f 2/2/5 3/13/5 4/3/5
f 7/2/6 6/13/6 5/3/6
f 14/5/1 10/14/1 9/6/1
f 15/5/2 11/14/2 10/6/2
f 16/5/3 12/14/3 11/6/3
f 13/5/4 9/14/4 12/6/4
f 10/5/5 11/14/5 12/6/5
f 15/5/6 14/14/6 13/6/6
f 22/5/1 18/14/1 17/6/1
f 23/5/2 19/14/2 18/6/2
f 24/5/3 20/14/3 19/6/3
f 21/5/4 17/14/4 20/6/4
f 18/5/5 19/14/5 20/6/5
f 23/5/6 22/14/6 21/6/6
f 30/8/1 26/15/1 25/9/1
f 31/8/2 27/15/2 26/9/2
f 32/8/3 28/15/3 27/9/3
f 29/8/4 25/15/4 28/9/4
f 26/8/5 27/15/5 28/9/5
f 31/8/6 30/15/6 29/9/6
f 38/8/1 34/15/1 33/9/1
f 39/8/2 35/15/2 34/9/2
f 40/8/3 36/15/3 35/9/3
f 37/8/4 33/15/4 36/9/4
f 34/8/5 35/15/5 36/9/5
f 39/8/6 38/15/6 37/9/6
f 46/11/1 42/16/1 41/12/1
f 47/11/2 43/16/2 42/12/2
f 48/11/3 44/16/3 43/12/3
f 45/11/4 41/16/4 44/12/4
f 42/11/5 43/16/5 44/12/5
f 47/11/6 46/16/6 45/12/6
f 54/11/1 50/16/1 49/12/1
f 55/11/2 51/16/2 50/12/2
f 56/11/3 52/16/3 51/12/3
f 53/11/4 49/16/4 52/12/4
f 50/11/5 51/16/5 52/12/5
f 55/11/6 54/16/6 53/12/6
