<?xml version="1.0" encoding="utf-8"?>
<!-- Generator: Adobe Illustrator 16.0.4, SVG Export Plug-In . SVG Version: 6.00 Build 0)  -->
<!DOCTYPE svg PUBLIC "-//W3C//DTD SVG 1.1//EN" "http://www.w3.org/Graphics/SVG/1.1/DTD/svg11.dtd">
<svg version="1.1" id="Layer_1" xmlns="http://www.w3.org/2000/svg" xmlns:xlink="http://www.w3.org/1999/xlink" x="0px" y="0px"
	 width="128px" height="128px" viewBox="0.083 0.083 128 128" enable-background="new 0.083 0.083 128 128" xml:space="preserve">
<g>
	<g>
		<g>
			<path fill="#0099CC" d="M65.333,119.75c-30.694,0-55.666-24.972-55.666-55.666S34.639,8.418,65.333,8.418
				s55.666,24.972,55.666,55.666S96.027,119.75,65.333,119.75z M66.793,116.84l2.136-0.146
				c26.169-1.773,47.241-22.846,49.015-49.015l0.146-2.136h-9.236v-2.92h9.236l-0.146-2.136
				c-1.773-26.171-22.846-47.243-49.016-49.014l-2.135-0.145v9.235h-2.92V11.33l-2.135,0.145
				c-26.171,1.771-47.243,22.843-49.016,49.015l-0.145,2.135h9.236v2.92h-9.236l0.145,2.135
				c1.773,26.17,22.845,47.242,49.015,49.016l2.136,0.146v-9.236h2.92V116.84z"/>
		</g>
		<g display="none">
			<path display="inline" fill="#0099CC" d="M32.789,74.772c0.088-1.116,0.283-2.076,0.608-3.06
				c0.541-1.629,1.366-2.933,2.206-3.485c2.228-1.48,4.809-2.333,7.541-3.235l1.385-0.463c0.786-0.273,1.675-0.583,2.522-1.085
				c1.453-0.864,1.805-2.477,1.938-3.083c0.068-0.36,0.104-0.665,0.134-0.97l0.078-0.798l-0.496-0.631
				c-2.117-2.694-3.654-7.574-3.654-11.601c0-4.553,1.826-6.41,6.303-6.41c0.286,0,0.562,0.008,0.827,0.024
				c-1.89,2.641-2.873,6.117-2.873,10.248c0,5.763,1.739,12.257,4.521,17.147c-0.068,0.024-0.419,0.146-0.419,0.146l-0.111,0.07
				c-0.213,0.075-0.426,0.157-0.639,0.239c-0.251,0.098-0.503,0.195-0.755,0.277c-3.918,1.296-8.051,2.769-11.854,5.295
				c-0.078,0.051-0.166,0.101-0.252,0.151c-0.409,0.237-0.963,0.559-1.5,1.222H32.789z"/>
		</g>
		<g display="none">
			<path display="inline" fill="#0099CC" d="M92.296,74.771c-0.528-0.645-1.075-0.94-1.451-1.144
				c-0.078-0.042-0.158-0.084-0.238-0.136c-4.014-2.666-8.38-4.297-12.12-5.54l-1.33-0.441c-0.217-0.077-0.431-0.153-0.636-0.229
				c2.744-4.869,4.47-11.372,4.47-17.058c0-4.126-0.982-7.601-2.87-10.242c0.293-0.021,0.599-0.031,0.916-0.031
				c4.477,0,6.303,1.858,6.303,6.414c0,3.895-1.417,8.553-3.444,11.328l-0.42,0.573l0.037,0.71c0.023,0.449,0.074,0.895,0.15,1.322
				c0.145,0.678,0.493,2.301,1.956,3.165c0.839,0.5,1.712,0.821,2.606,1.132l1.105,0.369c2.802,0.932,5.448,1.812,7.729,3.324
				c0.86,0.567,1.686,1.849,2.212,3.43c0.322,0.98,0.517,1.938,0.604,3.054H92.296z"/>
		</g>
		<g display="none">
			<path display="inline" fill="#0099CC" d="M39.703,88.61c0.115-1.77,0.421-3.525,0.867-4.871c0.761-2.285,1.931-4.079,3.209-4.919
				c3.053-2.027,6.546-3.18,10.245-4.399c0.558-0.185,1.842-0.615,1.842-0.615c1.054-0.37,2.144-0.753,3.203-1.379
				c1.692-1,2.116-2.947,2.275-3.681c0.083-0.459,0.129-0.841,0.164-1.221l0.074-0.794l-0.492-0.627
				c-2.904-3.698-5.013-10.377-5.013-15.88c0-6.461,2.713-9.217,9.07-9.217c6.359,0,9.072,2.757,9.072,9.219
				c0,5.323-1.941,11.695-4.722,15.496l-0.425,0.581l0.043,0.718c0.033,0.568,0.098,1.127,0.191,1.66
				c0.289,1.334,0.795,2.886,2.293,3.771c1.089,0.648,2.255,1.078,3.354,1.463l1.353,0.451c3.651,1.214,7.427,2.47,10.574,4.558
				c1.314,0.868,2.485,2.623,3.217,4.818c0.444,1.345,0.751,3.101,0.865,4.868H39.703z"/>
		</g>
	</g>
</g>
<g id="g4258" transform="translate(-0.96567272,-0.90251919)">
	
		<rect id="rect4240" x="38.357" y="43.132" fill="#464646" fill-opacity="0.9922" stroke="#464646" stroke-width="6.1" stroke-linecap="round" stroke-linejoin="round" stroke-opacity="0.9922" width="41.266" height="32.58"/>
	
		<path id="path4248" sodipodi:nodetypes="cccc" inkscape:connector-curvature="0" fill="#464646" fill-opacity="0.9922" stroke="#464646" stroke-width="3.3" stroke-linecap="round" stroke-linejoin="round" stroke-opacity="0.9922" d="
		M75.482,59.42l25.25,15.786l0.04-32.152L75.482,59.42z"/>
	
		<path id="path4256" inkscape:connector-curvature="0" fill="none" stroke="#464646" stroke-width="7.2" stroke-linecap="round" stroke-opacity="0.9922" d="
		M76.253,91.533L60.071,75.35L43.89,91.533"/>
</g>
</svg>
