<?xml version="1.0" encoding="utf-8"?>
<!-- Generator: Adobe Illustrator 16.0.4, SVG Export Plug-In . SVG Version: 6.00 Build 0)  -->
<!DOCTYPE svg PUBLIC "-//W3C//DTD SVG 1.1 Tiny//EN" "http://www.w3.org/Graphics/SVG/1.1/DTD/svg11-tiny.dtd">
<svg version="1.1" baseProfile="tiny" id="Layer_1" xmlns="http://www.w3.org/2000/svg" xmlns:xlink="http://www.w3.org/1999/xlink"
	 x="0px" y="0px" width="63.884px" height="63.884px" viewBox="0 0 63.884 63.884" xml:space="preserve">
<g>
	<path fill="#5D5E5E" d="M33.657,7.658c0-1.104-0.895-2-2-2h-3.1c-0.465-2.283-2.48-4-4.9-4c-2.418,0-4.436,1.717-4.898,4h-3.102
		c-1.105,0-2,0.896-2,2v4h20V7.658z"/>
	<path fill="#5D5E5E" d="M40.657,11.658v2v12.658c1.602-0.414,3.271-0.658,5-0.658v-16c0-1.105-0.895-2-2-2h-6v4h2H40.657z"/>
	<path fill="#5D5E5E" d="M25.657,45.658c0-0.674,0.035-1.342,0.102-2h-8.102c-1.104,0-2-0.895-2-2c0-1.104,0.896-2,2-2h8.922
		c0.691-2.191,1.766-4.209,3.119-6.004c-0.014,0-0.027,0.004-0.041,0.004h-12c-1.104,0-2-0.895-2-2c0-1.104,0.896-2,2-2h12
		c1.023,0,1.857,0.771,1.977,1.764c1.469-1.447,3.166-2.658,5.023-3.6V15.658h-2h-22h-2v33h15.25
		C25.759,47.677,25.657,46.681,25.657,45.658z M17.657,19.658h12c1.105,0,2,0.896,2,2c0,1.105-0.895,2-2,2h-12c-1.104,0-2-0.895-2-2
		C15.657,20.554,16.554,19.658,17.657,19.658z"/>
	<path fill="#5D5E5E" d="M26.946,52.658H7.657h-1v-1v-38v-2h1h2v-4h-6c-1.104,0-2,0.895-2,2v46c0,1.105,0.896,2,2,2h26.037
		C28.554,56.142,27.624,54.464,26.946,52.658z"/>
</g>
<path fill="#5D5E5E" d="M45.657,29.658c-8.834,0-16,7.162-16,16s7.166,16,16,16c8.838,0,16-7.162,16-16S54.495,29.658,45.657,29.658
	z M53.079,45.066c-0.391,0.391-0.902,0.586-1.414,0.586s-1.023-0.195-1.414-0.586l-2.594-2.592v11.184c0,1.104-0.896,2-2,2
	c-1.105,0-2-0.896-2-2V42.474l-2.594,2.592c-0.781,0.781-2.047,0.781-2.828,0s-0.781-2.047,0-2.828l7.422-7.42l7.422,7.42
	C53.86,43.019,53.86,44.285,53.079,45.066z"/>
</svg>
