<?xml version="1.0" encoding="iso-8859-1"?>
<!-- Generator: Adobe Illustrator 16.0.0, SVG Export Plug-In . SVG Version: 6.00 Build 0)  -->
<!DOCTYPE svg PUBLIC "-//W3C//DTD SVG 1.1//EN" "http://www.w3.org/Graphics/SVG/1.1/DTD/svg11.dtd">
<svg version="1.1" xmlns="http://www.w3.org/2000/svg" xmlns:xlink="http://www.w3.org/1999/xlink" x="0px" y="0px" width="25px"
	 height="32px" viewBox="0 0 25 32" style="enable-background:new 0 0 25 32;" xml:space="preserve">
<g id="file-settings">
	<path d="M18.074,8h4.934c0.401,0,0.763-0.162,0.917-0.534c0.153-0.371,0.068-0.759-0.216-1.043l-4.935-4.905
		c-0.285-0.282-0.72-0.366-1.09-0.212c-0.37,0.153-0.62,0.515-0.62,0.917v4.941C17.064,7.713,17.526,8,18.074,8z"/>
	<path d="M24.039,10H17c-1.104,0-2-0.896-2-2V1.148C15,0.601,14.556,0,14.008,0H3C1.297,0,0,1.536,0,3.24V29c0,1.703,1.297,3,3,3h19
		c1.703,0,3-1.297,3-3V11.141C25,10.593,24.586,10,24.039,10z M20,19.956C20,20.532,19.532,21,18.956,21h-1.169
		c-0.117,0.415-0.28,0.811-0.486,1.18l0.825,0.824c0.407,0.408,0.407,1.069,0,1.477l-0.646,0.646c-0.407,0.407-1.068,0.407-1.477,0
		l-0.824-0.825c-0.369,0.206-0.765,0.369-1.18,0.486v1.169C14,26.532,13.532,27,12.956,27h-0.912C11.468,27,11,26.532,11,25.956
		v-1.169c-0.415-0.117-0.811-0.28-1.18-0.486l-0.824,0.825c-0.408,0.407-1.069,0.407-1.477,0L6.874,24.48
		c-0.407-0.407-0.407-1.068,0-1.477l0.825-0.824C7.493,21.811,7.33,21.415,7.212,21H6.044C5.468,21,5,20.532,5,19.956v-0.912
		C5,18.468,5.468,18,6.044,18h1.168c0.118-0.415,0.281-0.811,0.487-1.18l-0.825-0.825c-0.407-0.407-0.407-1.068,0-1.477l0.646-0.645
		c0.407-0.407,1.068-0.407,1.477,0l0.824,0.825c0.369-0.206,0.765-0.369,1.18-0.486v-1.169C11,12.468,11.468,12,12.044,12h0.912
		C13.532,12,14,12.468,14,13.044v1.169c0.415,0.117,0.811,0.28,1.18,0.486l0.824-0.825c0.408-0.407,1.069-0.407,1.477,0l0.646,0.645
		c0.407,0.408,0.407,1.069,0,1.477l-0.825,0.825c0.206,0.369,0.369,0.765,0.486,1.18h1.169C19.532,18,20,18.468,20,19.044V19.956z"
		/>
	<path d="M12.5,16C10.57,16,9,17.57,9,19.5s1.57,3.5,3.5,3.5s3.5-1.57,3.5-3.5S14.43,16,12.5,16z"/>
</g>
<g id="Layer_1">
</g>
</svg>
