<?xml version="1.0" encoding="utf-8"?>
<!-- Generator: Adobe Illustrator 16.0.4, SVG Export Plug-In . SVG Version: 6.00 Build 0)  -->
<!DOCTYPE svg PUBLIC "-//W3C//DTD SVG 1.1 Tiny//EN" "http://www.w3.org/Graphics/SVG/1.1/DTD/svg11-tiny.dtd">
<svg version="1.1" baseProfile="tiny" id="Layer_1" xmlns="http://www.w3.org/2000/svg" xmlns:xlink="http://www.w3.org/1999/xlink"
	 x="0px" y="0px" width="66.5px" height="67.5px" viewBox="0 0 66.5 67.5" xml:space="preserve">
<g>
	<polyline fill="#FFFFFF" points="3.211,4.435 46.543,4.435 53.211,11.101 53.211,54.435 3.211,54.435 	"/>
	<g>
		<path fill="#666766" d="M41.211,4.435h-16v16h16V4.435z M37.211,14.435c0,1.104-0.896,2-2,2c-1.105,0-2-0.896-2-2v-4
			c0-1.104,0.895-2,2-2c1.104,0,2,0.896,2,2V14.435z"/>
		<path fill="#666766" d="M27.211,48.435c0-6.546,3.176-12.35,8.051-16H13.211v22h14.922C27.535,52.54,27.211,50.524,27.211,48.435z
			"/>
		<path fill="#666766" d="M53.211,29.356V11.101l-6.668-6.666h-1.332v16.332c0,2.022-1.646,3.668-3.668,3.668H24.877
			c-2.021,0-3.666-1.646-3.666-3.668V4.435h-18v50h6v-26h38C49.301,28.435,51.316,28.76,53.211,29.356z"/>
	</g>
	<rect x="38.584" y="37" fill="#FFFFFF" width="17.254" height="22.166"/>
	<path fill="#666766" d="M47.211,32.435c-8.834,0-16,7.162-16,16s7.166,16,16,16c8.838,0,16-7.162,16-16
		S56.049,32.435,47.211,32.435z M54.633,47.843c-0.391,0.391-0.902,0.586-1.414,0.586s-1.023-0.195-1.414-0.586l-2.594-2.592v11.184
		c0,1.104-0.896,2-2,2c-1.105,0-2-0.896-2-2V45.251l-2.594,2.592c-0.781,0.781-2.047,0.781-2.828,0s-0.781-2.047,0-2.828l7.422-7.42
		l7.422,7.42C55.414,45.796,55.414,47.062,54.633,47.843z"/>
</g>
</svg>
