<?xml version="1.0" encoding="utf-8"?>
<!-- Generator: Adobe Illustrator 16.0.4, SVG Export Plug-In . SVG Version: 6.00 Build 0)  -->
<!DOCTYPE svg PUBLIC "-//W3C//DTD SVG 1.1 Tiny//EN" "http://www.w3.org/Graphics/SVG/1.1/DTD/svg11-tiny.dtd">
<svg version="1.1" baseProfile="tiny" id="Layer_1" xmlns="http://www.w3.org/2000/svg" xmlns:xlink="http://www.w3.org/1999/xlink"
	 x="0px" y="0px" width="65.334px" height="65.334px" viewBox="0 0 65.334 65.334" xml:space="preserve">
<g>
	<rect x="47.27" y="35.585" fill="#FFFFFF" width="8.584" height="23.48"/>
	<rect x="6.354" y="25.834" fill="#FFFFFF" width="40.917" height="33.231"/>
	<rect x="6.354" y="9.066" fill="#FFFFFF" width="36.917" height="16.769"/>
	<path fill="#666766" d="M28.355,54.065H9.065h-1v-1v-38v-2h1h2v-4h-6c-1.104,0-2,0.895-2,2v46c0,1.105,0.896,2,2,2h26.038
		C29.961,57.55,29.032,55.872,28.355,54.065z"/>
	<path fill="#666766" d="M35.066,9.065c0-1.104-0.895-2-2-2h-3.1c-0.465-2.283-2.48-4-4.9-4c-2.418,0-4.436,1.717-4.898,4h-3.102
		c-1.105,0-2,0.896-2,2v4h20V9.065z"/>
	<path fill="#666766" d="M42.066,13.065v2v12.658c1.602-0.414,3.27-0.658,5-0.658v-16c0-1.105-0.895-2-2-2h-6v4h2H42.066z"/>
	<path fill="#666766" d="M27.065,47.065c0-0.674,0.036-1.342,0.102-2h-8.102c-1.104,0-2-0.895-2-2c0-1.104,0.896-2,2-2h8.923
		c0.69-2.191,1.764-4.209,3.117-6.004c-0.014,0-0.025,0.004-0.04,0.004h-12c-1.104,0-2-0.895-2-2c0-1.104,0.896-2,2-2h12
		c1.022,0,1.857,0.771,1.976,1.764c1.47-1.447,3.166-2.658,5.025-3.6V17.065h-2h-22h-2v33h15.25
		C27.167,49.085,27.065,48.089,27.065,47.065z M19.065,21.065h12c1.104,0,2,0.896,2,2c0,1.105-0.896,2-2,2h-12c-1.104,0-2-0.895-2-2
		C17.065,21.962,17.961,21.065,19.065,21.065z"/>
</g>
<path fill="#666766" d="M47.066,31.065c-8.836,0-16,7.162-16,16s7.165,16,16,16s16-7.162,16-16S55.902,31.065,47.066,31.065z
	 M54.488,50.474l-7.422,7.42l-7.422-7.42c-0.781-0.781-0.781-2.047,0-2.828c0.779-0.781,2.047-0.781,2.828,0l2.594,2.592V39.054
	c0-1.104,0.895-2,2-2c1.104,0,2,0.896,2,2v11.184l2.594-2.592c0.781-0.781,2.047-0.781,2.828,0S55.269,49.692,54.488,50.474z"/>
</svg>
