<?xml version="1.0" encoding="utf-8"?>
<!-- Generator: Adobe Illustrator 16.0.4, SVG Export Plug-In . SVG Version: 6.00 Build 0)  -->
<!DOCTYPE svg PUBLIC "-//W3C//DTD SVG 1.1 Tiny//EN" "http://www.w3.org/Graphics/SVG/1.1/DTD/svg11-tiny.dtd">
<svg version="1.1" baseProfile="tiny" id="Layer_1" xmlns="http://www.w3.org/2000/svg" xmlns:xlink="http://www.w3.org/1999/xlink"
	 x="0px" y="0px" width="612px" height="792px" viewBox="0 0 612 792" xml:space="preserve">
<ellipse fill="#CCCCCC" cx="318.156" cy="413.016" rx="14.281" ry="13.904"/>
<g>
	<path fill="#666766" d="M330.978,411.463c-0.538-0.491-1.403-0.487-1.931,0.01l-1.034,0.968c0.015-2.34-0.948-4.646-2.761-6.345
		c-2.945-2.761-7.56-3.391-11.222-1.534c-0.663,0.336-0.906,1.105-0.543,1.719c0.362,0.615,1.189,0.841,1.854,0.505
		c2.601-1.317,5.877-0.867,7.971,1.094c1.253,1.176,1.927,2.76,1.959,4.378l-0.838-0.784c-0.532-0.497-1.396-0.501-1.932-0.009
		c-0.535,0.493-0.541,1.294-0.01,1.792l4.248,3.979l4.246-3.979C331.518,412.758,331.514,411.956,330.978,411.463z"/>
	<path fill="#666766" d="M321.258,419.044c-2.598,1.336-5.872,0.881-7.967-1.106c-1.255-1.188-1.926-2.795-1.959-4.434l0.84,0.796
		c0.267,0.253,0.617,0.38,0.969,0.38c0.348,0,0.695-0.122,0.961-0.37c0.536-0.499,0.541-1.311,0.01-1.814l-4.245-4.031l-4.247,4.031
		c-0.532,0.504-0.527,1.315,0.009,1.814c0.535,0.497,1.4,0.494,1.93-0.01l1.032-0.98c-0.015,2.368,0.948,4.705,2.762,6.424
		c1.813,1.722,4.26,2.625,6.726,2.625c1.538,0,3.085-0.352,4.488-1.074c0.661-0.341,0.903-1.119,0.544-1.741
		C322.747,418.932,321.918,418.703,321.258,419.044z"/>
</g>
<g>
	<rect x="304.375" y="376.935" fill="#FFFFFF" width="14.643" height="3.69"/>
	<rect x="303.021" y="364.935" fill="#FFFFFF" width="3.997" height="14.315"/>
	<polygon fill="#666766" points="307.018,364.935 307.018,376.935 319.018,376.935 	"/>
	<g>
		<path fill="#666766" d="M319.02,379.25v16.96c-0.289-0.01-0.569-0.02-0.859-0.02c-9.54,0-17.28,7.541-17.28,16.83
			c0,2.86,0.74,5.551,2.03,7.91c-12.56,0-27.89,0-27.89,0v-56h29.36v14.32H319.02z"/>
	</g>
</g>
<path display="none" fill="#CCCCCC" d="M319.02,396.21v24.72H302.91c-1.29-2.359-2.03-5.05-2.03-7.91
	c0-9.289,7.74-16.83,17.28-16.83C318.45,396.19,318.73,396.2,319.02,396.21z"/>
<rect x="279.021" y="379.985" fill="none" width="24" height="24"/>
<g display="none">
	<path display="inline" fill="#FFFFFF" d="M284.555,400.768c-0.095,0-0.189-0.027-0.271-0.08c-0.143-0.092-0.229-0.25-0.229-0.42
		v-7.834c0-0.196,0.115-0.374,0.293-0.455l5.464-2.477c0.153-0.071,0.333-0.057,0.478,0.035c0.143,0.092,0.229,0.25,0.229,0.42
		v7.836c0,0.195-0.114,0.373-0.293,0.455l-5.464,2.475C284.695,400.754,284.625,400.768,284.555,400.768z M285.055,392.755v6.737
		l4.464-2.021v-6.739L285.055,392.755z"/>
	<path display="inline" fill="#FFFFFF" d="M284.555,400.768c-0.064,0-0.129-0.012-0.19-0.037l-6.017-2.477
		c-0.187-0.076-0.31-0.258-0.31-0.461v-7.836c0-0.167,0.083-0.322,0.222-0.415c0.138-0.095,0.313-0.111,0.469-0.047l6.017,2.477
		c0.188,0.077,0.31,0.259,0.31,0.462v7.834c0,0.168-0.083,0.322-0.222,0.416C284.75,400.74,284.652,400.768,284.555,400.768z
		 M279.038,397.457l5.017,2.064v-6.753l-5.017-2.065V397.457z"/>
	<path display="inline" fill="#FFFFFF" d="M284.555,392.933c-0.064,0-0.129-0.013-0.19-0.038l-6.017-2.477
		c-0.188-0.077-0.31-0.26-0.31-0.463s0.124-0.386,0.312-0.462l6.017-2.448c0.127-0.05,0.27-0.048,0.393,0.007l5.464,2.448
		c0.18,0.08,0.295,0.258,0.295,0.455c0.001,0.196-0.114,0.375-0.293,0.456l-5.464,2.477
		C284.696,392.918,284.625,392.933,284.555,392.933z M279.858,389.959l4.687,1.929l4.257-1.929l-4.256-1.907L279.858,389.959z"/>
	<path display="inline" fill="#FFFFFF" d="M290.019,390.457c-0.095,0-0.189-0.027-0.271-0.081c-0.143-0.092-0.229-0.25-0.229-0.419
		v-7.487c0-0.2,0.119-0.381,0.303-0.459l5.516-2.366c0.155-0.067,0.332-0.051,0.473,0.042c0.14,0.092,0.225,0.25,0.225,0.417v7.405
		c0,0.198-0.116,0.377-0.297,0.457l-5.516,2.448C290.157,390.442,290.088,390.457,290.019,390.457z M290.52,382.799v6.389
		l4.515-2.004v-6.321L290.52,382.799z"/>
	<path display="inline" fill="#FFFFFF" d="M290.019,390.457c-0.068,0-0.139-0.015-0.204-0.044l-5.464-2.447
		c-0.18-0.081-0.295-0.259-0.295-0.457v-7.405c0-0.168,0.085-0.326,0.226-0.418c0.141-0.092,0.32-0.107,0.473-0.041l5.464,2.366
		c0.183,0.08,0.301,0.26,0.301,0.459v7.487c0,0.17-0.085,0.327-0.228,0.42C290.209,390.429,290.114,390.457,290.019,390.457z
		 M285.055,387.185l4.464,2v-6.387l-4.464-1.933V387.185z"/>
	<path display="inline" fill="#FFFFFF" d="M290.019,382.97c-0.067,0-0.135-0.014-0.198-0.041l-5.464-2.366
		c-0.183-0.08-0.302-0.26-0.301-0.46s0.12-0.38,0.303-0.458l5.464-2.339c0.126-0.054,0.269-0.054,0.392-0.001l5.516,2.339
		c0.185,0.079,0.305,0.259,0.305,0.459s-0.119,0.381-0.303,0.46l-5.516,2.366C290.153,382.956,290.086,382.97,290.019,382.97z
		 M285.819,380.106l4.202,1.819l4.239-1.819l-4.239-1.798L285.819,380.106z"/>
	<path display="inline" fill="#FFFFFF" d="M295.534,400.768c-0.098,0-0.194-0.027-0.277-0.084c-0.14-0.092-0.223-0.248-0.223-0.416
		v-7.834c0-0.202,0.122-0.385,0.309-0.462l5.966-2.477c0.154-0.063,0.331-0.047,0.469,0.046c0.14,0.093,0.223,0.249,0.223,0.416
		v7.836c0,0.201-0.122,0.385-0.309,0.461l-5.966,2.477C295.664,400.756,295.599,400.768,295.534,400.768z M296.034,392.767v6.752
		l4.966-2.061v-6.753L296.034,392.767z"/>
	<path display="inline" fill="#FFFFFF" d="M295.534,400.768c-0.069,0-0.14-0.014-0.205-0.043l-5.515-2.477
		c-0.18-0.08-0.296-0.258-0.296-0.455v-7.836c0-0.17,0.086-0.327,0.229-0.42c0.143-0.091,0.323-0.104,0.477-0.036l5.516,2.477
		c0.18,0.081,0.295,0.259,0.295,0.456v7.834c0,0.17-0.086,0.328-0.229,0.42C295.724,400.74,295.629,400.768,295.534,400.768z
		 M290.52,397.469l4.515,2.027v-6.74l-4.515-2.027V397.469z"/>
	<path display="inline" fill="#FFFFFF" d="M295.534,392.933c-0.07,0-0.14-0.015-0.205-0.044l-5.515-2.477
		c-0.181-0.081-0.296-0.26-0.296-0.457c0.001-0.197,0.117-0.376,0.298-0.456l5.515-2.448c0.124-0.056,0.266-0.058,0.393-0.005
		l5.966,2.447c0.188,0.077,0.311,0.26,0.311,0.462s-0.121,0.385-0.309,0.463l-5.966,2.477
		C295.664,392.92,295.6,392.933,295.534,392.933z M291.245,389.959l4.297,1.929l4.647-1.929l-4.647-1.907L291.245,389.959z"/>
</g>
<g display="none">
	<path display="inline" fill="#9FC9EB" d="M284.709,400.783c-0.095,0-0.189-0.027-0.271-0.08c-0.143-0.092-0.229-0.25-0.229-0.42
		v-7.835c0-0.196,0.115-0.374,0.293-0.455l5.464-2.477c0.153-0.071,0.333-0.057,0.478,0.035c0.143,0.092,0.229,0.25,0.229,0.42
		v7.836c0,0.196-0.114,0.374-0.293,0.455l-5.464,2.476C284.85,400.769,284.779,400.783,284.709,400.783z M285.209,392.771v6.737
		l4.464-2.022v-6.738L285.209,392.771z"/>
	<path display="inline" fill="#9FC9EB" d="M284.709,400.783c-0.064,0-0.129-0.013-0.19-0.038l-6.017-2.476
		c-0.187-0.076-0.31-0.259-0.31-0.462v-7.836c0-0.167,0.083-0.322,0.222-0.415c0.138-0.095,0.313-0.111,0.469-0.047l6.017,2.477
		c0.188,0.077,0.31,0.259,0.31,0.462v7.835c0,0.167-0.083,0.322-0.222,0.415C284.904,400.755,284.807,400.783,284.709,400.783z
		 M279.192,397.473l5.017,2.064v-6.754l-5.017-2.065V397.473z"/>
	<path display="inline" fill="#9FC9EB" d="M284.709,392.948c-0.064,0-0.129-0.013-0.19-0.038l-6.017-2.477
		c-0.188-0.077-0.31-0.26-0.31-0.463s0.124-0.386,0.312-0.462l6.017-2.448c0.127-0.05,0.27-0.048,0.393,0.007l5.464,2.448
		c0.18,0.08,0.295,0.258,0.295,0.455c0.001,0.196-0.114,0.375-0.293,0.456l-5.464,2.477
		C284.85,392.934,284.779,392.948,284.709,392.948z M280.012,389.975l4.687,1.929l4.257-1.929l-4.256-1.907L280.012,389.975z"/>
	<path display="inline" fill="#A8D48C" d="M290.173,390.472c-0.068,0-0.139-0.015-0.204-0.044l-5.464-2.447
		c-0.18-0.081-0.295-0.259-0.295-0.457v-7.405c0-0.168,0.085-0.326,0.226-0.418c0.141-0.092,0.32-0.107,0.473-0.041l5.464,2.366
		c0.183,0.08,0.301,0.26,0.301,0.459v7.487c0,0.17-0.085,0.327-0.228,0.42C290.363,390.444,290.269,390.472,290.173,390.472z
		 M285.209,387.2l4.464,2v-6.387l-4.464-1.933V387.2z"/>
	<path display="inline" fill="#A8D48C" d="M290.173,382.985c-0.067,0-0.135-0.014-0.198-0.041l-5.464-2.366
		c-0.183-0.08-0.302-0.26-0.301-0.46s0.12-0.38,0.303-0.458l5.464-2.339c0.126-0.054,0.269-0.054,0.392-0.001l5.516,2.339
		c0.185,0.079,0.305,0.259,0.305,0.459s-0.119,0.381-0.303,0.46l-5.516,2.366C290.308,382.971,290.24,382.985,290.173,382.985z
		 M285.973,380.121l4.202,1.819l4.239-1.819l-4.239-1.798L285.973,380.121z"/>
	<path display="inline" fill="#EF3B39" d="M295.688,400.783c-0.098,0-0.194-0.028-0.277-0.084c-0.14-0.093-0.223-0.249-0.223-0.416
		v-7.835c0-0.202,0.122-0.385,0.309-0.462l5.966-2.477c0.154-0.063,0.331-0.047,0.469,0.046c0.14,0.093,0.223,0.249,0.223,0.416
		v7.836c0,0.202-0.122,0.385-0.309,0.462l-5.966,2.476C295.818,400.771,295.753,400.783,295.688,400.783z M296.188,392.782v6.752
		l4.966-2.061v-6.753L296.188,392.782z"/>
	<path display="inline" fill="#EF3B39" d="M295.688,400.783c-0.069,0-0.14-0.015-0.205-0.044l-5.515-2.476
		c-0.18-0.08-0.296-0.259-0.296-0.456v-7.836c0-0.17,0.086-0.327,0.229-0.42c0.143-0.091,0.323-0.104,0.477-0.036l5.516,2.477
		c0.18,0.081,0.295,0.259,0.295,0.456v7.835c0,0.17-0.086,0.327-0.229,0.42C295.878,400.756,295.783,400.783,295.688,400.783z
		 M290.674,397.484l4.515,2.026v-6.739l-4.515-2.027V397.484z"/>
	<path display="inline" fill="#EF3B39" d="M295.688,392.948c-0.07,0-0.14-0.015-0.205-0.044l-5.515-2.477
		c-0.181-0.081-0.296-0.26-0.296-0.457c0.001-0.197,0.117-0.376,0.298-0.456l5.515-2.448c0.124-0.056,0.266-0.058,0.393-0.005
		l5.966,2.447c0.188,0.077,0.311,0.26,0.311,0.462s-0.121,0.385-0.309,0.463l-5.966,2.477
		C295.818,392.936,295.754,392.948,295.688,392.948z M291.399,389.975l4.297,1.929l4.647-1.929l-4.647-1.907L291.399,389.975z"/>
	<path display="inline" fill="#A8D48C" d="M290.173,390.472c-0.095,0-0.189-0.027-0.271-0.081c-0.143-0.092-0.229-0.25-0.229-0.419
		v-7.487c0-0.2,0.119-0.381,0.303-0.459l5.516-2.366c0.155-0.067,0.332-0.051,0.473,0.042c0.14,0.092,0.225,0.25,0.225,0.417v7.405
		c0,0.198-0.116,0.377-0.297,0.457l-5.516,2.448C290.312,390.457,290.242,390.472,290.173,390.472z M290.674,382.814v6.389
		l4.515-2.004v-6.321L290.674,382.814z"/>
</g>
<image width="32" height="32" xlink:href="../../../../../../../../Downloads/Pixels.png"  transform="matrix(0.3267 0 0 0.3267 284.1455 367.1709)">
</image>
<path fill="#CCCCCC" d="M278.671,400.749c0-0.774,0.574-1.401,1.28-1.401h15.359c0.708,0,1.28,0.627,1.28,1.401
	c0,0.773-0.572,1.401-1.28,1.401h-15.359C279.245,402.15,278.671,401.522,278.671,400.749z"/>
<path fill="#CCCCCC" d="M278.671,393.743c0-0.775,0.574-1.401,1.28-1.401h15.359c0.708,0,1.28,0.626,1.28,1.401
	c0,0.773-0.572,1.401-1.28,1.401h-15.359C279.245,395.144,278.671,394.516,278.671,393.743z"/>
<path fill="#CCCCCC" d="M306.831,386.736c0,0.773-0.573,1.402-1.28,1.402h-25.6c-0.707,0-1.28-0.628-1.28-1.402s0.574-1.4,1.28-1.4
	h25.6C306.258,385.336,306.831,385.963,306.831,386.736z"/>
</svg>
