<?xml version="1.0" encoding="utf-8"?>
<!-- Generator: Adobe Illustrator 16.0.4, SVG Export Plug-In . SVG Version: 6.00 Build 0)  -->
<!DOCTYPE svg PUBLIC "-//W3C//DTD SVG 1.1//EN" "http://www.w3.org/Graphics/SVG/1.1/DTD/svg11.dtd">
<svg version="1.1" id="Layer_1" xmlns="http://www.w3.org/2000/svg" xmlns:xlink="http://www.w3.org/1999/xlink" x="0px" y="0px"
	 width="128px" height="128px" viewBox="-194.5 7084.5 128 128" enable-background="new -194.5 7084.5 128 128"
	 xml:space="preserve">
<path fill="#4D4D4D" fill-opacity="0.75" d="M-139.667,7148.5v-55l64.167,36.667v55L-139.667,7148.5z"/>
<path fill="#4D4D4D" fill-opacity="0.5" d="M-185.5,7111.833l45.833-18.333v55l-45.833,18.333V7111.833z"/>
<path fill="#4D4D4D" fill-opacity="0.25" d="M-185.5,7166.833l45.833-18.333l64.167,36.667l-45.833,18.333L-185.5,7166.833z"/>
<g id="_x23_18acd9ff">
	<path fill="#18ACD9" d="M-179.247,7170.541c4.551-4.317,11.076-6.457,17.292-5.418c9.507,1.335,17.539,10.291,17.032,20.02
		c0.697,10.874-9.412,21.007-20.292,20.291c-10.665,0.615-20.159-9.05-20.285-19.563c1.747-0.367,3.494-0.715,5.24-1.082
		c0,3.753,1.241,7.538,3.753,10.36c3.475,4.064,9.203,6.033,14.438,4.893c4.854-0.98,9.089-4.5,10.931-9.102
		c1.835-4.379,1.379-9.614-1.152-13.627c-2.684-4.424-7.772-7.24-12.943-7.165c-3.646-0.044-7.121,1.513-9.918,3.779
		c1.646,1.418,3.323,2.791,4.975,4.203c-4.798,1.095-9.583,2.253-14.38,3.341c0.19-4.911,0.393-9.822,0.696-14.734
		C-182.316,7167.996-180.785,7169.269-179.247,7170.541z"/>
</g>
</svg>
