<?xml version="1.0" encoding="utf-8"?>
<!-- Generator: Adobe Illustrator 16.0.4, SVG Export Plug-In . SVG Version: 6.00 Build 0)  -->
<!DOCTYPE svg PUBLIC "-//W3C//DTD SVG 1.1//EN" "http://www.w3.org/Graphics/SVG/1.1/DTD/svg11.dtd">
<svg version="1.1"
	 id="svg4268" xmlns:dc="http://purl.org/dc/elements/1.1/" xmlns:cc="http://creativecommons.org/ns#" xmlns:rdf="http://www.w3.org/1999/02/22-rdf-syntax-ns#" xmlns:svg="http://www.w3.org/2000/svg" xmlns:sodipodi="http://sodipodi.sourceforge.net/DTD/sodipodi-0.dtd" xmlns:inkscape="http://www.inkscape.org/namespaces/inkscape" sodipodi:docname="resetCamera.svg" inkscape:version="0.91pre3 r13670"
	 xmlns="http://www.w3.org/2000/svg" xmlns:xlink="http://www.w3.org/1999/xlink" x="0px" y="0px" width="128px" height="128px"
	 viewBox="19 19 128 128" enable-background="new 19 19 128 128" xml:space="preserve">
<sodipodi:namedview  fit-margin-left="0" fit-margin-top="0" inkscape:cy="5.6408246" inkscape:cx="160.16351" inkscape:zoom="1.0429825" showgrid="true" guidetolerance="10" gridtolerance="10" objecttolerance="10" borderopacity="1" pagecolor="#ffffff" bordercolor="#666666" id="namedview4270" fit-margin-bottom="0" fit-margin-right="0" inkscape:current-layer="svg4268" inkscape:window-maximized="1" inkscape:window-y="-8" inkscape:window-x="-8" inkscape:window-height="838" inkscape:window-width="1600" inkscape:pageshadow="2" inkscape:pageopacity="0">
	<inkscape:grid  type="xygrid" id="grid4250"></inkscape:grid>
</sodipodi:namedview>
<g id="g4258" transform="translate(-0.96567272,-0.90251919)">
	
		<rect id="rect4240" x="34.466" y="45.909" fill="#464646" fill-opacity="0.9922" stroke="#464646" stroke-width="6.1" stroke-linecap="round" stroke-linejoin="round" stroke-opacity="0.9922" width="67.703" height="53.451"/>
	
		<path id="path4248" sodipodi:nodetypes="cccc" inkscape:connector-curvature="0" fill="#464646" fill-opacity="0.9922" stroke="#464646" stroke-width="3.3" stroke-linecap="round" stroke-linejoin="round" stroke-opacity="0.9922" d="
		M95.377,72.634l41.425,25.898l0.063-52.751L95.377,72.634z"/>
	
		<path id="path4256" inkscape:connector-curvature="0" fill="none" stroke="#464646" stroke-width="7.2" stroke-linecap="round" stroke-opacity="0.9922" d="
		M96.639,125.318L70.093,98.771l-26.547,26.547"/>
</g>
<g id="_x23_18acd9ff">
	<path fill="#18ACD9" d="M49.542,53.195c5.768-5.471,14.038-8.181,21.916-6.867c12.048,1.693,22.227,13.044,21.586,25.374
		c0.882,13.782-11.929,26.625-25.718,25.716c-13.517,0.779-25.55-11.471-25.71-24.794c2.214-0.465,4.428-0.907,6.642-1.372
		c0,4.757,1.572,9.553,4.757,13.131c4.403,5.152,11.663,7.646,18.297,6.201c6.152-1.243,11.519-5.702,13.854-11.535
		c2.325-5.55,1.748-12.185-1.461-17.271c-3.401-5.607-9.851-9.177-16.404-9.081c-4.621-0.055-9.023,1.917-12.57,4.789
		c2.086,1.797,4.212,3.538,6.306,5.326c-6.082,1.389-12.145,2.857-18.225,4.235c0.24-6.225,0.497-12.449,0.882-18.673
		C45.651,49.971,47.592,51.583,49.542,53.195z"/>
</g>
</svg>
