<?xml version="1.0" encoding="utf-8"?>
<!-- Generator: Adobe Illustrator 16.0.4, SVG Export Plug-In . SVG Version: 6.00 Build 0)  -->
<!DOCTYPE svg PUBLIC "-//W3C//DTD SVG 1.1//EN" "http://www.w3.org/Graphics/SVG/1.1/DTD/svg11.dtd">
<svg version="1.1" id="Layer_3" xmlns="http://www.w3.org/2000/svg" xmlns:xlink="http://www.w3.org/1999/xlink" x="0px" y="0px"
	 width="612px" height="792px" viewBox="0 0 612 792" enable-background="new 0 0 612 792" xml:space="preserve">
<path fill="#202020" d="M560.362,559.519c0.956-6.693,1.913-13.388,1.913-20.081c0-7.65-0.957-14.344-1.913-21.994l29.644-17.212
	l-38.25-65.981l-29.644,17.213c-10.519-8.606-22.95-16.257-35.381-20.082V396h-76.5v35.381
	c-13.388,4.781-24.862,11.476-35.382,20.082l-30.6-17.213L306,501.188l28.688,16.256c-0.956,6.694-1.912,14.344-1.912,21.994
	c0,6.693,0.956,13.388,1.912,20.081l-31.557,18.169l38.25,65.981l31.557-18.169c10.519,9.562,22.95,16.256,36.338,21.037v36.338
	h76.5v-35.381c13.387-4.781,25.818-12.432,37.293-21.994l31.557,19.125l38.25-65.981L560.362,559.519z M447.525,587.25
	c-26.775,0-47.812-21.037-47.812-47.812s21.037-47.812,47.812-47.812c26.774,0,47.812,21.037,47.812,47.812
	S474.3,587.25,447.525,587.25z"/>
<g>
	<path fill="#666666" d="M382.5,109.125h-153v153h153V109.125z M344.25,204.75c0,10.519-8.606,19.125-19.125,19.125
		S306,215.269,306,204.75V166.5c0-10.519,8.606-19.125,19.125-19.125s19.125,8.606,19.125,19.125V204.75z"/>
	<path fill="#666666" d="M265.837,568.125c2.869-9.562,8.606-18.169,18.169-22.95l10.519-5.737l0,0l-7.65-5.737
		c-18.169-10.519-24.862-34.425-14.344-52.594l38.25-65.981c4.781-8.606,13.388-15.3,22.95-18.169
		C336.6,396,340.425,396,343.294,396c6.693,0,13.388,1.912,19.125,4.781l7.649,3.825v-9.562c0-6.694,1.913-13.388,5.738-19.125
		H114.75v210.375h151.087C264.881,580.557,263.925,574.818,265.837,568.125z"/>
	<path fill="#666666" d="M439.875,357.75h45.9c3.824,0,7.649,0.956,11.475,1.913V173.194l-64.068-64.069H420.75v155.869
		c0,19.125-15.3,35.381-35.381,35.381H226.631c-19.125,0-35.381-15.3-35.381-35.381V109.125H19.125V587.25H76.5V338.625h363.375
		V357.75z"/>
</g>
</svg>
