<?xml version="1.0" encoding="utf-8"?>
<!-- Generator: Adobe Illustrator 16.0.4, SVG Export Plug-In . SVG Version: 6.00 Build 0)  -->
<!DOCTYPE svg PUBLIC "-//W3C//DTD SVG 1.1 Tiny//EN" "http://www.w3.org/Graphics/SVG/1.1/DTD/svg11-tiny.dtd">
<svg version="1.1" baseProfile="tiny" id="Layer_1" xmlns="http://www.w3.org/2000/svg" xmlns:xlink="http://www.w3.org/1999/xlink"
	 x="0px" y="0px" width="66.884px" height="66.883px" viewBox="0 0 66.884 66.883" xml:space="preserve">
<g>
	<g>
		<path fill="#666766" d="M41.602,3.601h-16v16h16V3.601z M37.602,13.601c0,1.104-0.896,2-2,2c-1.105,0-2-0.896-2-2v-4
			c0-1.104,0.895-2,2-2c1.104,0,2,0.896,2,2V13.601z"/>
		<path fill="#666766" d="M27.601,47.601c0-6.546,3.176-12.35,8.051-16H13.601v22h14.922C27.926,51.707,27.601,49.691,27.601,47.601
			z"/>
		<path fill="#666766" d="M53.602,28.523V10.267l-6.668-6.666h-1.332v16.332c0,2.022-1.646,3.668-3.668,3.668H25.267
			c-2.021,0-3.666-1.646-3.666-3.668V3.601h-18v50h6v-26h38C49.691,27.601,51.707,27.926,53.602,28.523z"/>
	</g>
	<path fill="#666766" d="M47.602,31.601c-8.836,0-16,7.162-16,16s7.165,16,16,16s16-7.162,16-16S56.438,31.601,47.602,31.601z
		 M55.023,51.009l-7.422,7.42l-7.422-7.42c-0.781-0.781-0.781-2.047,0-2.828c0.779-0.781,2.047-0.781,2.828,0l2.594,2.592V39.589
		c0-1.104,0.895-2,2-2c1.104,0,2,0.896,2,2v11.184l2.594-2.592c0.781-0.781,2.047-0.781,2.828,0S55.805,50.228,55.023,51.009z"/>
</g>
</svg>
