<?xml version="1.0" encoding="utf-8"?>
<!-- Generator: Adobe Illustrator 16.0.4, SVG Export Plug-In . SVG Version: 6.00 Build 0)  -->
<!DOCTYPE svg PUBLIC "-//W3C//DTD SVG 1.1 Tiny//EN" "http://www.w3.org/Graphics/SVG/1.1/DTD/svg11-tiny.dtd">
<svg version="1.1" baseProfile="tiny" id="Layer_1" xmlns="http://www.w3.org/2000/svg" xmlns:xlink="http://www.w3.org/1999/xlink"
	 x="0px" y="0px" width="64px" height="64px" viewBox="0 0 64 64" xml:space="preserve">
<g display="none">
	<polygon display="inline" fill="#666666" points="6.49,27.31 5.326,26.255 0,31.473 0,32.527 5.326,37.744 6.436,36.689 
		2.545,32.745 20.125,32.745 20.125,31.255 2.545,31.255 	"/>
	<polygon display="inline" fill="#666666" points="45.573,32.684 61.67,32.684 58.059,36.295 59.123,37.26 64,32.482 64,31.518 
		59.123,26.74 58.107,27.705 61.67,31.317 45.573,31.317 	"/>
	<polygon display="inline" fill="#666666" points="31.44,0 25.898,5.657 27.018,6.835 31.208,2.703 31.208,21.375 32.792,21.375 
		32.792,2.703 36.982,6.893 38.102,5.657 32.561,0 	"/>
	<polygon display="inline" fill="#666666" points="31.222,43 31.222,61.346 27.105,57.229 26.006,58.441 31.45,64 32.55,64 
		37.994,58.441 36.895,57.285 32.777,61.346 32.777,43 	"/>
</g>
<polygon fill="#CCCCCC" stroke="#666666" points="18.581,23.927 30.755,29.823 31.396,46.812 19.921,39.623 "/>
<polygon fill="#CCCCCC" stroke="#666666" points="44.919,23.946 30.755,29.837 31.396,46.812 44.423,39.707 "/>
<polygon fill="#FFFFFF" stroke="#666666" points="32.362,18.471 43.805,23.451 30.755,29.382 19.374,23.276 "/>
<polygon points="24.145,25.981 31.703,23.078 25.68,20.57 18.284,23.116 "/>
<polygon points="45.246,23.257 38.558,20.615 31.674,23.123 38.461,25.937 "/>
<g>
	<polygon points="59.179,14.082 59.882,13.379 59.427,4.552 50.6,4.097 49.896,4.8 56.763,7.216 	"/>
</g>
<g>
	<polygon points="14.579,58.682 13.876,59.385 5.049,58.93 4.594,50.103 5.297,49.399 7.713,56.266 	"/>
</g>
<g>
	<polygon points="13.869,6.278 13.166,5.575 4.338,6.03 3.883,14.857 4.586,15.561 7.002,8.694 	"/>
</g>
<g>
	<polygon points="47.984,58.959 48.688,59.662 57.514,59.207 57.969,50.381 57.266,49.678 54.85,56.543 	"/>
</g>
</svg>
