<?xml version="1.0" encoding="utf-8"?>
<!-- Generator: Adobe Illustrator 16.0.4, SVG Export Plug-In . SVG Version: 6.00 Build 0)  -->
<!DOCTYPE svg PUBLIC "-//W3C//DTD SVG 1.1 Tiny//EN" "http://www.w3.org/Graphics/SVG/1.1/DTD/svg11-tiny.dtd">
<svg version="1.1" baseProfile="tiny" id="Layer_1" xmlns="http://www.w3.org/2000/svg" xmlns:xlink="http://www.w3.org/1999/xlink"
	 x="0px" y="0px" width="612px" height="792px" viewBox="0 0 612 792" xml:space="preserve">
<g>
	<path fill="#FFFFFF" d="M242.34,352.56c0.004-0.004-0.007,0.013-0.016,0.027l0.026-0.038c0.08-0.1,0.17-0.18,0.27-0.24
		c1.26-0.72,2.29-1.33,2.29-1.33c0-0.01-0.95-0.59-2.12-1.26c-1.17-0.68-0.32-4.35,1.88-8.16c2.2-3.81,4.95-6.37,6.12-5.7
		c1.17,0.68,2.12,0.1,2.12-1.28c0-1.04,2.03-1.94,4.89-2.32l-0.01-14.45l-22.25,9.88c-0.02,9.29-0.02,18.57,0,27.87
		C237.81,354.56,240.07,353.56,242.34,352.56z"/>
	<path fill="#FFFFFF" d="M211.752,313.471c6.97,3.109,13.958,6.189,20.928,9.299c7.068-3.12,14.136-6.249,21.185-9.408
		l-20.958-9.279L211.752,313.471z"/>
	<path fill="#FFFFFF" d="M207.65,317.805c0,1.218,0.01,2.437,0.01,3.655v0.31c0,0.223-0.001,0.446-0.001,0.668l0.057,22.997
		c0.002,0.125,0.002,0.25,0.004,0.375c4.52,1.95,9.03,3.96,13.53,5.95c0.22,0.1,0.43,0.19,0.65,0.29
		c2.669,1.19,5.348,2.369,8.027,3.529l0.004-6.156l0.009-14.702c0-0.807,0.003-1.613,0.003-2.42l0.003-4.597L207.65,317.805z"/>
	<path fill="#666766" d="M263.57,314.24c0.12-1.56-0.57-3.21-2.2-3.65c-8.28-3.74-16.64-7.31-24.92-11.08
		c-1.68-0.71-3.59-1.82-5.36-0.7c-8.55,3.72-17.03,7.6-25.58,11.31c-1.43,0.7-3.55,1.35-3.38,3.35c-0.17,10.63,0.02,21.27-0.08,31.9
		c0.08,1.69-0.27,4.14,1.83,4.74c8.24,3.84,16.66,7.33,24.93,11.12c1.98,0.99,4.35,1.65,6.44,0.56c2.64-1.17,5.29-2.33,7.93-3.5
		c-1.11-2.53-1.47-4.73-0.89-5.65c0,0,0.019-0.029,0.034-0.053c0.009-0.015,0.02-0.031,0.016-0.027c-2.27,1-4.53,2-6.8,3
		c-0.02-9.3-0.02-18.58,0-27.87v-0.07c7.47-3.3,14.92-6.64,22.38-9.94v14.57c0.93-0.13,1.93-0.19,2.99-0.19
		c0.94,0,1.84,0.05,2.68,0.15C263.6,326.22,263.61,320.23,263.57,314.24z M229.94,334.72l-0.009,14.702l-0.001,1.688v4.47
		c-0.001,0-0.002-0.001-0.003-0.001c-2.679-1.16-5.358-2.339-8.027-3.529c-0.22-0.1-0.43-0.19-0.65-0.29
		c-4.5-1.99-9.01-4-13.53-5.95c-0.002-0.125-0.002-0.25-0.004-0.375c-0.128-7.663-0.07-15.334-0.057-22.997
		c0-0.223,0.001-0.446,0.001-0.668v-0.31c0-1.218-0.01-2.437-0.01-3.655c0-0.002,0-0.003,0-0.005c7.45,3.26,14.88,6.56,22.3,9.9
		c-0.007,1.533-0.006,3.066-0.007,4.6C229.943,333.107,229.94,333.914,229.94,334.72z M253.865,313.362
		c-7.049,3.16-14.117,6.289-21.185,9.408c-6.97-3.11-13.958-6.189-20.928-9.299c-0.001,0-0.001,0-0.002-0.001
		c7.05-3.12,14.11-6.25,21.16-9.39c6.99,3.09,13.97,6.19,20.96,9.28C253.869,313.36,253.867,313.361,253.865,313.362z"/>
</g>
<g>
	<path fill="#FFFFFF" d="M263.61,345.37c-0.02-4.39-0.02-8.77-0.02-13.16c-0.84-0.1-1.74-0.15-2.68-0.15
		c-1.06,0-2.06,0.06-2.99,0.19c0,4.46,0,8.93,0.01,13.39c-0.04,0.02-0.09,0.04-0.13,0.06v0.07l-15.51,6.87
		c-0.58,0.92-0.22,3.12,0.89,5.65c6.13-2.7,12.25-5.42,18.35-8.18C263.66,349.53,263.62,347.14,263.61,345.37z"/>
</g>
<g>
	<path fill="#FFFFFF" d="M252.91,334.58c0,1.38-0.95,1.96-2.12,1.28c-1.17-0.67-3.92,1.89-6.12,5.7c-2.2,3.81-3.05,7.48-1.88,8.16
		c1.17,0.67,2.12,1.25,2.12,1.26c0,0-1.03,0.61-2.29,1.33c-0.1,0.06-0.19,0.14-0.27,0.24c5.15-2.27,10.3-4.55,15.45-6.85v-13.44
		C254.94,332.64,252.91,333.54,252.91,334.58z"/>
</g>
<g>
</g>
<rect x="255.5" y="345.938" fill="#FFFFFF" width="10.908" height="10.908"/>
<path fill="#666766" d="M272.727,353.147c0.119-0.678,0.186-1.371,0.186-2.082c0-0.771-0.082-1.523-0.221-2.254l3.086-1.783
	l-4-6.928l-3.135,1.809c-1.094-0.922-2.352-1.658-3.73-2.146v-3.697h-8v3.697c-1.363,0.482-2.609,1.209-3.697,2.119l-3.084-1.781
	l-4,6.928l3.012,1.74c-0.146,0.744-0.23,1.51-0.23,2.297c0,0.727,0.07,1.434,0.195,2.125l-3.311,1.91l4,6.928l3.279-1.893
	c1.119,0.965,2.414,1.729,3.836,2.232v3.697h8v-3.697c1.436-0.508,2.744-1.283,3.871-2.26l3.328,1.92l4-6.928L272.727,353.147z
	 M260.912,356.065c-2.762,0-5-2.238-5-5s2.238-5,5-5s5,2.238,5,5S263.674,356.065,260.912,356.065z"/>
</svg>
