<?xml version="1.0" encoding="utf-8"?>
<!-- Generator: Adobe Illustrator 16.0.4, SVG Export Plug-In . SVG Version: 6.00 Build 0)  -->
<!DOCTYPE svg PUBLIC "-//W3C//DTD SVG 1.1//EN" "http://www.w3.org/Graphics/SVG/1.1/DTD/svg11.dtd">
<svg version="1.1" id="Layer_1" xmlns="http://www.w3.org/2000/svg" xmlns:xlink="http://www.w3.org/1999/xlink" x="0px" y="0px"
	 width="60px" height="60px" viewBox="0 0 60 60" enable-background="new 0 0 60 60" xml:space="preserve">
<path fill="#666666" d="M56.697,0H3.303C1.482,0,0,1.481,0,3.303v53.395C0,58.518,1.482,60,3.303,60h53.394
	C58.52,60,60,58.518,60,56.695V3.303C60,1.481,58.52,0,56.697,0z M56.535,56.535H3.465V3.465h53.07V56.535z"/>
<path fill="#666666" d="M14.527,43.407c-2.336,0-4.236,1.899-4.236,4.235s1.9,4.234,4.236,4.234c2.335,0,4.235-1.898,4.235-4.234
	C18.762,45.309,16.862,43.407,14.527,43.407z M14.527,50.146c-1.38,0-2.503-1.123-2.503-2.504c0-1.379,1.123-2.502,2.503-2.502
	c1.38,0,2.502,1.123,2.502,2.502C17.029,49.023,15.907,50.146,14.527,50.146z"/>
<path fill="#666666" d="M29.959,43.407c-2.335,0-4.235,1.899-4.235,4.235s1.9,4.234,4.235,4.234s4.234-1.898,4.234-4.234
	C34.193,45.309,32.294,43.407,29.959,43.407z M29.959,50.146c-1.38,0-2.503-1.123-2.503-2.504c0-1.379,1.123-2.502,2.503-2.502
	s2.503,1.123,2.503,2.502C32.462,49.023,31.339,50.146,29.959,50.146z"/>
<path fill="#666666" d="M44.839,43.407c-2.336,0-4.235,1.899-4.235,4.235s1.899,4.234,4.235,4.234c2.335,0,4.234-1.898,4.234-4.234
	C49.073,45.309,47.174,43.407,44.839,43.407z M44.839,50.146c-1.381,0-2.504-1.123-2.504-2.504c0-1.379,1.123-2.502,2.504-2.502
	c1.38,0,2.502,1.123,2.502,2.502C47.341,49.023,46.219,50.146,44.839,50.146z"/>
<path fill="#231F20" d="M11.711,34.395h1.95v1.586c0,0.479,0.388,0.865,0.866,0.865s0.866-0.388,0.866-0.865v-1.586h1.847
	c1.718,0,3.115-1.397,3.115-3.115c0-1.717-1.397-3.114-3.115-3.114h-1.847V9.437c0-0.478-0.388-0.865-0.866-0.865
	s-0.866,0.388-0.866,0.865v18.728h-1.95c-1.718,0-3.115,1.397-3.115,3.114C8.596,32.996,9.993,34.395,11.711,34.395z"/>
<path fill="#231F20" d="M27.194,24.164h1.899v11.814c0,0.479,0.388,0.866,0.866,0.866s0.866-0.388,0.866-0.866V24.164h1.897
	c1.719,0,3.115-1.397,3.115-3.115c0-1.718-1.396-3.114-3.115-3.114h-1.897V9.437c0-0.478-0.388-0.865-0.866-0.865
	s-0.866,0.388-0.866,0.865v8.498h-1.899c-1.717,0-3.115,1.396-3.115,3.114C24.079,22.767,25.477,24.164,27.194,24.164z"/>
<path fill="#231F20" d="M42.073,31.075h1.897v4.903c0,0.479,0.389,0.866,0.866,0.866s0.866-0.388,0.866-0.866v-4.903h1.898
	c1.717,0,3.114-1.396,3.114-3.114c0-1.718-1.397-3.115-3.114-3.115h-1.898V9.437c0-0.478-0.389-0.865-0.866-0.865
	s-0.866,0.388-0.866,0.865v15.409h-1.897c-1.718,0-3.115,1.397-3.115,3.115C38.958,29.679,40.355,31.075,42.073,31.075z"/>
<path fill="#CCCCCC" d="M15.392,28.165h1.848c1.718,0,3.115,1.397,3.115,3.114c0,1.718-1.397,3.115-3.115,3.115h-1.848h-1.731h-1.95
	c-1.718,0-3.115-1.398-3.115-3.115s1.397-3.114,3.115-3.114h1.95"/>
<path fill="#CCCCCC" d="M30.875,17.915h1.848c1.719,0,3.115,1.397,3.115,3.114c0,1.718-1.396,3.115-3.115,3.115h-1.848h-1.731h-1.95
	c-1.718,0-3.115-1.398-3.115-3.115s1.397-3.114,3.115-3.114h1.95"/>
<path fill="#CCCCCC" d="M45.756,24.79h1.848c1.717,0,3.115,1.397,3.115,3.114c0,1.718-1.398,3.115-3.115,3.115h-1.848h-1.732h-1.949
	c-1.719,0-3.115-1.398-3.115-3.115s1.396-3.114,3.115-3.114h1.949"/>
</svg>
